<svg width="124" height="36" viewBox="0 0 124 36" fill="none" xmlns="http://www.w3.org/2000/svg">
<rect width="124" height="36" rx="4" fill="#7E7CFF"/>
<path d="M48.404 18.6L45.62 27H43.964L41.888 20.784L39.776 27H38.108L35.324 18.6H36.944L39.032 24.984L41.204 18.6H42.644L44.768 25.02L46.916 18.6H48.404ZM55.9749 25.692V27H49.6749V18.6H55.8069V19.908H51.2349V22.092H55.2909V23.376H51.2349V25.692H55.9749ZM63.6659 22.632C64.1299 22.784 64.4979 23.04 64.7699 23.4C65.0419 23.752 65.1779 24.192 65.1779 24.72C65.1779 25.448 64.8979 26.012 64.3379 26.412C63.7779 26.804 62.9619 27 61.8899 27H57.7139V18.6H61.6499C62.6419 18.6 63.4059 18.796 63.9419 19.188C64.4779 19.572 64.7459 20.104 64.7459 20.784C64.7459 21.2 64.6499 21.568 64.4579 21.888C64.2659 22.208 64.0019 22.456 63.6659 22.632ZM59.2739 19.824V22.14H61.4819C62.0259 22.14 62.4419 22.044 62.7299 21.852C63.0259 21.652 63.1739 21.364 63.1739 20.988C63.1739 20.604 63.0259 20.316 62.7299 20.124C62.4419 19.924 62.0259 19.824 61.4819 19.824H59.2739ZM61.7939 25.776C63.0019 25.776 63.6059 25.372 63.6059 24.564C63.6059 23.756 63.0019 23.352 61.7939 23.352H59.2739V25.776H61.7939ZM68.4297 19.92H65.6457V18.6H72.7737V19.92H69.9897V27H68.4297V19.92ZM77.7512 27.12C76.8952 27.12 76.1232 26.936 75.4352 26.568C74.7472 26.192 74.2072 25.676 73.8152 25.02C73.4232 24.356 73.2272 23.616 73.2272 22.8C73.2272 21.984 73.4232 21.248 73.8152 20.592C74.2072 19.928 74.7472 19.412 75.4352 19.044C76.1232 18.668 76.8952 18.48 77.7512 18.48C78.6072 18.48 79.3792 18.668 80.0672 19.044C80.7552 19.412 81.2952 19.924 81.6872 20.58C82.0792 21.236 82.2752 21.976 82.2752 22.8C82.2752 23.624 82.0792 24.364 81.6872 25.02C81.2952 25.676 80.7552 26.192 80.0672 26.568C79.3792 26.936 78.6072 27.12 77.7512 27.12ZM77.7512 25.752C78.3112 25.752 78.8152 25.628 79.2632 25.38C79.7112 25.124 80.0632 24.772 80.3192 24.324C80.5752 23.868 80.7032 23.36 80.7032 22.8C80.7032 22.24 80.5752 21.736 80.3192 21.288C80.0632 20.832 79.7112 20.48 79.2632 20.232C78.8152 19.976 78.3112 19.848 77.7512 19.848C77.1912 19.848 76.6872 19.976 76.2392 20.232C75.7912 20.48 75.4392 20.832 75.1832 21.288C74.9272 21.736 74.7992 22.24 74.7992 22.8C74.7992 23.36 74.9272 23.868 75.1832 24.324C75.4392 24.772 75.7912 25.124 76.2392 25.38C76.6872 25.628 77.1912 25.752 77.7512 25.752ZM85.5156 19.92H82.7316V18.6H89.8596V19.92H87.0756V27H85.5156V19.92ZM97.3303 25.692V27H91.0303V18.6H97.1623V19.908H92.5903V22.092H96.6463V23.376H92.5903V25.692H97.3303ZM106.785 27L106.773 21.432L104.013 26.04H103.317L100.557 21.504V27H99.0694V18.6H100.353L103.689 24.168L106.965 18.6H108.249L108.261 27H106.785Z" fill="white"/>
<path d="M37.268 8.8C37.812 8.8 38.24 8.93 38.552 9.19C38.864 9.45 39.02 9.808 39.02 10.264C39.02 10.72 38.864 11.078 38.552 11.338C38.24 11.598 37.812 11.728 37.268 11.728H36.23V13H35.63V8.8H37.268ZM37.25 11.206C37.63 11.206 37.92 11.126 38.12 10.966C38.32 10.802 38.42 10.568 38.42 10.264C38.42 9.96 38.32 9.728 38.12 9.568C37.92 9.404 37.63 9.322 37.25 9.322H36.23V11.206H37.25ZM43.7095 13L42.8035 11.71C42.6915 11.718 42.6035 11.722 42.5395 11.722H41.5015V13H40.9015V8.8H42.5395C43.0835 8.8 43.5115 8.93 43.8235 9.19C44.1355 9.45 44.2915 9.808 44.2915 10.264C44.2915 10.588 44.2115 10.864 44.0515 11.092C43.8915 11.32 43.6635 11.486 43.3675 11.59L44.3635 13H43.7095ZM42.5215 11.212C42.9015 11.212 43.1915 11.13 43.3915 10.966C43.5915 10.802 43.6915 10.568 43.6915 10.264C43.6915 9.96 43.5915 9.728 43.3915 9.568C43.1915 9.404 42.9015 9.322 42.5215 9.322H41.5015V11.212H42.5215ZM48.1569 13.048C47.7329 13.048 47.3509 12.956 47.0109 12.772C46.6709 12.584 46.4029 12.326 46.2069 11.998C46.0149 11.67 45.9189 11.304 45.9189 10.9C45.9189 10.496 46.0149 10.13 46.2069 9.802C46.4029 9.474 46.6709 9.218 47.0109 9.034C47.3509 8.846 47.7329 8.752 48.1569 8.752C48.5769 8.752 48.9569 8.846 49.2969 9.034C49.6369 9.218 49.9029 9.474 50.0949 9.802C50.2869 10.126 50.3829 10.492 50.3829 10.9C50.3829 11.308 50.2869 11.676 50.0949 12.004C49.9029 12.328 49.6369 12.584 49.2969 12.772C48.9569 12.956 48.5769 13.048 48.1569 13.048ZM48.1569 12.514C48.4649 12.514 48.7409 12.444 48.9849 12.304C49.2329 12.164 49.4269 11.972 49.5669 11.728C49.7109 11.48 49.7829 11.204 49.7829 10.9C49.7829 10.596 49.7109 10.322 49.5669 10.078C49.4269 9.83 49.2329 9.636 48.9849 9.496C48.7409 9.356 48.4649 9.286 48.1569 9.286C47.8489 9.286 47.5689 9.356 47.3169 9.496C47.0689 9.636 46.8729 9.83 46.7289 10.078C46.5889 10.322 46.5189 10.596 46.5189 10.9C46.5189 11.204 46.5889 11.48 46.7289 11.728C46.8729 11.972 47.0689 12.164 47.3169 12.304C47.5689 12.444 47.8489 12.514 48.1569 12.514ZM53.0753 9.322H51.6353V8.8H55.1093V9.322H53.6693V13H53.0753V9.322ZM59.8108 12.478V13H56.7628V8.8H59.7268V9.322H57.3628V10.612H59.4688V11.122H57.3628V12.478H59.8108ZM63.6428 13.048C63.2228 13.048 62.8428 12.956 62.5028 12.772C62.1668 12.584 61.9028 12.328 61.7108 12.004C61.5188 11.676 61.4228 11.308 61.4228 10.9C61.4228 10.492 61.5188 10.126 61.7108 9.802C61.9028 9.474 62.1688 9.218 62.5088 9.034C62.8488 8.846 63.2288 8.752 63.6488 8.752C63.9768 8.752 64.2768 8.808 64.5488 8.92C64.8208 9.028 65.0528 9.19 65.2448 9.406L64.8548 9.784C64.5388 9.452 64.1448 9.286 63.6728 9.286C63.3608 9.286 63.0788 9.356 62.8268 9.496C62.5748 9.636 62.3768 9.83 62.2328 10.078C62.0928 10.322 62.0228 10.596 62.0228 10.9C62.0228 11.204 62.0928 11.48 62.2328 11.728C62.3768 11.972 62.5748 12.164 62.8268 12.304C63.0788 12.444 63.3608 12.514 63.6728 12.514C64.1408 12.514 64.5348 12.346 64.8548 12.01L65.2448 12.388C65.0528 12.604 64.8188 12.768 64.5428 12.88C64.2708 12.992 63.9708 13.048 63.6428 13.048ZM67.8878 9.322H66.4478V8.8H69.9218V9.322H68.4818V13H67.8878V9.322ZM74.6233 12.478V13H71.5753V8.8H74.5393V9.322H72.1753V10.612H74.2813V11.122H72.1753V12.478H74.6233ZM76.5948 8.8H78.3648C78.8088 8.8 79.2028 8.888 79.5468 9.064C79.8908 9.24 80.1568 9.488 80.3448 9.808C80.5368 10.124 80.6328 10.488 80.6328 10.9C80.6328 11.312 80.5368 11.678 80.3448 11.998C80.1568 12.314 79.8908 12.56 79.5468 12.736C79.2028 12.912 78.8088 13 78.3648 13H76.5948V8.8ZM78.3288 12.478C78.6688 12.478 78.9668 12.412 79.2228 12.28C79.4828 12.148 79.6828 11.964 79.8228 11.728C79.9628 11.488 80.0328 11.212 80.0328 10.9C80.0328 10.588 79.9628 10.314 79.8228 10.078C79.6828 9.838 79.4828 9.652 79.2228 9.52C78.9668 9.388 78.6688 9.322 78.3288 9.322H77.1948V12.478H78.3288ZM87.9892 10.822C88.2332 10.89 88.4252 11.014 88.5652 11.194C88.7052 11.37 88.7752 11.594 88.7752 11.866C88.7752 12.23 88.6372 12.51 88.3612 12.706C88.0892 12.902 87.6912 13 87.1672 13H85.1632V8.8H87.0472C87.5272 8.8 87.8972 8.896 88.1572 9.088C88.4212 9.28 88.5532 9.546 88.5532 9.886C88.5532 10.106 88.5012 10.296 88.3972 10.456C88.2972 10.616 88.1612 10.738 87.9892 10.822ZM85.7632 9.286V10.63H86.9932C87.3012 10.63 87.5372 10.574 87.7012 10.462C87.8692 10.346 87.9532 10.178 87.9532 9.958C87.9532 9.738 87.8692 9.572 87.7012 9.46C87.5372 9.344 87.3012 9.286 86.9932 9.286H85.7632ZM87.1432 12.514C87.4832 12.514 87.7392 12.458 87.9112 12.346C88.0832 12.234 88.1692 12.058 88.1692 11.818C88.1692 11.35 87.8272 11.116 87.1432 11.116H85.7632V12.514H87.1432ZM92.2243 11.548V13H91.6303V11.536L89.9623 8.8H90.6043L91.9483 11.014L93.2983 8.8H93.8923L92.2243 11.548Z" fill="white"/>
<path fill-rule="evenodd" clip-rule="evenodd" d="M15.7292 7.30909H20.2497V6H15.7292V7.30909ZM15.7292 9.38199H20.2497V8.09455H15.7292V9.38199ZM23.7583 20.9928L19.0183 25.6538L20.4052 27.0174L23.7583 23.7192V20.9928ZM23.7583 17.1388L20.4297 19.898V22.2209L23.7583 18.9471V17.1388ZM20.4297 15.1769V17.9194C21.3545 17.0257 23.5036 15.6398 23.5036 15.6398L23.6432 15.5281L20.4297 15.1769ZM23.7583 11.6294H12.2242V14.1345L15.5716 13.7687V13.7673H17.011V23.6794L17.9791 24.6317L18.9903 23.6368V13.7673H20.4297V13.7694L23.7583 14.1331V11.6294ZM15.5716 17.853V15.1762L12.3034 15.5344L12.5056 15.6028C12.5056 15.6028 14.6259 16.9587 15.5716 17.853ZM12.2242 18.9715L15.5716 22.2641V19.8345L12.2242 17.0808V18.9715ZM12.2242 23.7415L15.5543 27.0167L16.9398 25.6538L12.2242 21.0165V23.7415ZM25.1999 19.5748L25.1978 19.5768V24.3056H25.1589L25.1999 24.3468L20.4282 29.04L20.3627 28.9758L20.3397 28.9988L17.9791 26.6767L15.5759 29.04L15.5119 28.9772L15.4903 28.9988L10.7999 24.3859L10.8849 24.3021H10.8035V19.6194L10.7999 19.6159L10.8035 19.6118V15.6984H10.7999V14.2902L10.8035 14.2895V11.2748V10.2331H25.1978V10.5382V11.6294V14.2902V15.6984V19.572L25.1999 19.5748Z" fill="white"/>
</svg>
