<svg width="405" height="405" viewBox="0 0 405 405" fill="none" xmlns="http://www.w3.org/2000/svg">
<circle cx="203" cy="202" r="155" fill="#FF5050" fill-opacity="0.1"/>
<rect x="201.305" y="261" width="52.1102" height="52.1102" transform="rotate(45 201.305 261)" fill="#FF5050"/>
<g filter="url(#filter0_d)">
<circle cx="200.5" cy="202.5" r="105.5" fill="white"/>
<circle cx="200.5" cy="202.5" r="97.5" stroke="white" stroke-width="16"/>
</g>
<path d="M168.065 212.284C168.065 210.73 167.51 209.519 166.4 208.651C165.311 207.784 163.383 206.885 160.618 205.957C157.853 205.029 155.593 204.131 153.837 203.263C148.125 200.457 145.27 196.603 145.27 191.698C145.27 189.256 145.976 187.107 147.389 185.25C148.822 183.373 150.84 181.92 153.443 180.891C156.047 179.841 158.973 179.316 162.223 179.316C165.391 179.316 168.227 179.882 170.729 181.012C173.252 182.142 175.21 183.757 176.603 185.855C177.995 187.934 178.691 190.316 178.691 193H168.096C168.096 191.204 167.541 189.811 166.431 188.822C165.341 187.833 163.857 187.339 161.98 187.339C160.083 187.339 158.58 187.763 157.47 188.61C156.38 189.438 155.835 190.497 155.835 191.789C155.835 192.919 156.44 193.949 157.651 194.877C158.862 195.785 160.992 196.734 164.039 197.723C167.087 198.691 169.589 199.741 171.547 200.871C176.31 203.616 178.691 207.4 178.691 212.224C178.691 216.078 177.238 219.106 174.332 221.306C171.426 223.506 167.44 224.605 162.374 224.605C158.802 224.605 155.562 223.97 152.656 222.698C149.77 221.407 147.59 219.651 146.117 217.431C144.664 215.19 143.938 212.617 143.938 209.711H154.594C154.594 212.072 155.199 213.818 156.41 214.948C157.641 216.058 159.629 216.613 162.374 216.613C164.13 216.613 165.512 216.24 166.521 215.493C167.551 214.726 168.065 213.657 168.065 212.284Z" fill="#FF5050"/>
<path d="M221.468 202.869C221.468 207.168 220.671 210.972 219.076 214.282C217.482 217.592 215.211 220.145 212.265 221.941C209.338 223.717 205.998 224.605 202.244 224.605C198.49 224.605 195.16 223.748 192.254 222.032C189.348 220.297 187.077 217.824 185.442 214.615C183.828 211.406 182.98 207.723 182.899 203.565V201.083C182.899 196.764 183.687 192.96 185.261 189.67C186.855 186.36 189.126 183.807 192.072 182.011C195.039 180.215 198.41 179.316 202.184 179.316C205.917 179.316 209.247 180.204 212.174 181.98C215.1 183.757 217.371 186.289 218.985 189.579C220.62 192.849 221.448 196.603 221.468 200.841V202.869ZM210.66 201.022C210.66 196.643 209.924 193.323 208.45 191.062C206.997 188.782 204.908 187.642 202.184 187.642C196.855 187.642 194.04 191.638 193.737 199.63L193.707 202.869C193.707 207.188 194.424 210.508 195.856 212.829C197.289 215.15 199.419 216.311 202.244 216.311C204.928 216.311 206.997 215.17 208.45 212.89C209.903 210.609 210.64 207.329 210.66 203.051V201.022Z" fill="#FF5050"/>
<path d="M249.683 212.284C249.683 210.73 249.128 209.519 248.018 208.651C246.928 207.784 245 206.885 242.235 205.957C239.47 205.029 237.21 204.131 235.454 203.263C229.743 200.457 226.887 196.603 226.887 191.698C226.887 189.256 227.593 187.107 229.006 185.25C230.439 183.373 232.457 181.92 235.061 180.891C237.664 179.841 240.59 179.316 243.84 179.316C247.008 179.316 249.844 179.882 252.347 181.012C254.869 182.142 256.827 183.757 258.22 185.855C259.612 187.934 260.309 190.316 260.309 193H249.713C249.713 191.204 249.158 189.811 248.048 188.822C246.958 187.833 245.475 187.339 243.598 187.339C241.701 187.339 240.197 187.763 239.087 188.61C237.997 189.438 237.452 190.497 237.452 191.789C237.452 192.919 238.058 193.949 239.269 194.877C240.479 195.785 242.609 196.734 245.656 197.723C248.704 198.691 251.206 199.741 253.164 200.871C257.927 203.616 260.309 207.4 260.309 212.224C260.309 216.078 258.855 219.106 255.949 221.306C253.043 223.506 249.057 224.605 243.991 224.605C240.419 224.605 237.18 223.97 234.273 222.698C231.387 221.407 229.208 219.651 227.734 217.431C226.281 215.19 225.555 212.617 225.555 209.711H236.211C236.211 212.072 236.816 213.818 238.027 214.948C239.258 216.058 241.246 216.613 243.991 216.613C245.747 216.613 247.13 216.24 248.139 215.493C249.168 214.726 249.683 213.657 249.683 212.284Z" fill="#FF5050"/>
<defs>
<filter id="filter0_d" x="15" y="8" width="371" height="371" filterUnits="userSpaceOnUse" color-interpolation-filters="sRGB">
<feFlood flood-opacity="0" result="BackgroundImageFix"/>
<feColorMatrix in="SourceAlpha" type="matrix" values="0 0 0 0 0 0 0 0 0 0 0 0 0 0 0 0 0 0 127 0"/>
<feOffset dy="-9"/>
<feGaussianBlur stdDeviation="40"/>
<feColorMatrix type="matrix" values="0 0 0 0 0 0 0 0 0 0 0 0 0 0 0 0 0 0 0.07 0"/>
<feBlend mode="normal" in2="BackgroundImageFix" result="effect1_dropShadow"/>
<feBlend mode="normal" in="SourceGraphic" in2="effect1_dropShadow" result="shape"/>
</filter>
</defs>
</svg>
