<svg width="45" height="45" viewBox="0 0 45 45" fill="none" xmlns="http://www.w3.org/2000/svg">
<path fill-rule="evenodd" clip-rule="evenodd" d="M18.8732 4.33012H26.0933V2H18.8732V4.33012ZM18.8732 8.01887H26.0933V5.72715H18.8732V8.01887ZM31.6966 28.6805L24.1265 36.9742L26.3419 39.4016L31.6966 33.5317V28.6805ZM31.6966 21.8223L26.3808 26.7322V30.8661L31.6966 25.0401V21.8223ZM26.3808 18.3312V23.2105C27.8574 21.6213 31.2902 19.1555 31.2902 19.1555L31.5128 18.9556L26.3808 18.3312ZM31.6966 12.0174H13.2751V16.4765L18.6213 15.826V15.8237H20.9203V33.4628L22.4672 35.157L24.0817 33.3858V15.8215H26.3808V15.826L31.6966 16.4732V12.0174ZM18.6213 23.0929V18.3301L13.4015 18.9671L13.7255 19.0891C13.7255 19.0891 17.1112 21.5015 18.6213 23.0929ZM13.2751 25.0832L18.6213 30.9428V26.6193L13.2751 21.7195V25.0832ZM13.2751 33.5712L18.5943 39.3993L20.8066 36.9742L13.2751 28.7222V33.5712ZM34 26.1572L33.9956 26.1606V34.5751H33.9331L33.999 34.6485L26.3785 43L26.274 42.8871L26.2364 42.9266L22.4672 38.7949L18.6288 43L18.5263 42.8882L18.4919 42.9277L11.001 34.7175L11.1369 34.5685H11.0064V26.2351L11 26.2295L11.0064 26.2217V19.2584H11V16.7509H11.0064V9.53242H33.9967V26.1505L33.999 26.1561L34 26.1572Z" fill="#3D50DF"/>
</svg>
